<svg width="768" height="1075" viewBox="0 0 768 1075" fill="none" xmlns="http://www.w3.org/2000/svg">
<g style="mix-blend-mode:color">
<path d="M764.032 528H3.96821C1.77663 528 0 529.791 0 532V1070.3C0 1072.51 1.77663 1074.3 3.96821 1074.3H764.032C766.223 1074.3 768 1072.51 768 1070.3V532C768 529.791 766.223 528 764.032 528Z" fill="#194D44" fill-opacity="0.3"/>
</g>
<g clip-path="url(#clip0_1112_10)">
<path d="M768 3.35703e-05V641.551C443.259 566.258 384.593 740.902 0 641.551L2.80431e-05 0L768 3.35703e-05Z" fill="white" fill-opacity="0.2"/>
</g>
<g clip-path="url(#clip1_1112_10)">
<path d="M768 0.500034V618.219C443.259 545.723 384.593 713.88 0 618.219L2.70014e-05 0.5L768 0.500034Z" fill="url(#paint0_linear_1112_10)"/>
</g>
<defs>
<linearGradient id="paint0_linear_1112_10" x1="397.5" y1="8.64287" x2="397.5" y2="648.5" gradientUnits="userSpaceOnUse">
<stop stop-color="#305D52"/>
<stop offset="1" stop-color="#153F38"/>
</linearGradient>
<clipPath id="clip0_1112_10">
<rect width="768" height="673" fill="white"/>
</clipPath>
<clipPath id="clip1_1112_10">
<rect width="768" height="648" fill="white" transform="translate(0 0.5)"/>
</clipPath>
</defs>
</svg>
