<svg width="1440" height="648" viewBox="0 0 1440 648" fill="none" xmlns="http://www.w3.org/2000/svg">
<g clip-path="url(#clip0_1108_10)">
<g style="mix-blend-mode:color">
<path d="M1436 -30H689C686.791 -30 685 -28.2091 685 -26V674C685 676.209 686.791 678 689 678H1436C1438.21 678 1440 676.209 1440 674V-26C1440 -28.2091 1438.21 -30 1436 -30Z" fill="#194D44" fill-opacity="0.3"/>
</g>
</g>
<path d="M0 0H742.597C655.445 274 857.597 323.5 742.597 648H0V0Z" fill="white" fill-opacity="0.2"/>
<path d="M0 0H719.719C635.252 274 831.175 323.5 719.719 648H0V0Z" fill="url(#paint0_linear_1108_10)"/>
<defs>
<linearGradient id="paint0_linear_1108_10" x1="377.5" y1="0" x2="377.5" y2="648" gradientUnits="userSpaceOnUse">
<stop stop-color="#305D52"/>
<stop offset="1" stop-color="#153F38"/>
</linearGradient>
<clipPath id="clip0_1108_10">
<rect width="749" height="648" fill="white" transform="translate(691)"/>
</clipPath>
</defs>
</svg>
